<svg xmlns="http://www.w3.org/2000/svg" version="1.1" xmlns:xlink="http://www.w3.org/1999/xlink" width="512" height="512" x="0" y="0" viewBox="0 0 32 32" style="enable-background:new 0 0 512 512" xml:space="preserve" class=""><g><path d="M16 2C8.28 2 2 8.28 2 16s6.28 14 14 14a1 1 0 0 0 1-1v-8h11.361a1 1 0 0 0 .951-.69c.453-1.39.685-2.845.688-4.308A1 1 0 0 0 30 16c0-7.72-6.28-14-14-14zm0 2c6.64 0 12 5.36 12 12 0 1.019-.22 2.017-.478 3H16a1 1 0 0 0-1 1v7.799C8.856 27.267 4 22.284 4 16 4 9.36 9.36 4 16 4z" fill="currentColor" opacity="1" data-original="#000000"></path><path d="M21.732 10.072a2 2 0 0 1-2.732.732 2 2 0 0 1-.732-2.732A2 2 0 0 1 21 7.34a2 2 0 0 1 .732 2.732zM10.804 13a2 2 0 0 1-2.732.732A2 2 0 0 1 7.34 11a2 2 0 0 1 2.732-.732A2 2 0 0 1 10.804 13zM24.245 15.861a2 2 0 0 1-2.45-1.414 2 2 0 0 1 1.415-2.45 2 2 0 0 1 2.45 1.415 2 2 0 0 1-1.415 2.45zM14.447 10.205a2 2 0 0 1-2.45-1.415 2 2 0 0 1 1.415-2.45 2 2 0 0 1 2.45 1.415 2 2 0 0 1-1.415 2.45z" fill="currentColor" opacity="1" data-original="#000000"></path></g></svg>